Description

Sinopse e detalhes

Alex (Ben Stiller), Marty (Chris Rock), Melman (David Schwimmer), Gloria (Jada Pinkett Smith), rei Julien (Sacha Baron Cohen), Maurice (Cedric the Entertainer), os pingüins e os chimpanzés estão no longínquo litoral de Madagascar. Para deixar o local os pingüins consertam um velho avião de guerra, mas logo em seu 1º vôo ele cai. Isto faz com que os animais do zoológico de Nova York tenham que lidar, pela 1ª vez na vida, com espécies semelhantes a eles, só que habituadas à vida selvagem.

Format : Matroska
Format version : Version 2
File size : 748 MiB
Duration : 1h 29mn
Overall bit rate : 1 171 Kbps
Encoded date : UTC 2013-05-15 11:38:52
Writing application : mkvmerge v5.8.0 ('No Sleep / Pillow') built on Sep 2 2012 15:37:04
Writing library : libebml v1.2.3 + libmatroska v1.3.0

Video
ID : 1
Format : AVC
Format/Info : Advanced Video Codec
Format profile : High@L4.1
Format settings, CABAC : Yes
Format settings, ReFrames : 4 frames
Muxing mode : Header stripping
Codec ID : V_MPEG4/ISO/AVC
Duration : 1h 29mn
Bit rate : 763 Kbps
Width : 720 pixels
Height : 400 pixels
Display aspect ratio : 16:9
Frame rate mode : Constant
Frame rate : 23.976 fps
Color space : YUV
Chroma subsampling : 4:2:0
Bit depth : 8 bits
Scan type : Progressive
Bits/(Pixel*Frame) : 0.111
Stream size : 488 MiB (65%)
Title : Madagascar2 ( by fantasma )
Writing library : x264 core 130 r2273 b3065e6
Encoding settings : cabac=1 / ref=3 / deblock=1:0:0 / analyse=0x3:0x113 / me=hex / subme=7 / psy=1 / psy_rd=1.00:0.00 / mixed_ref=1 / me_range=16 / chroma_me=1 / trellis=1 / 8x8dct=1 / cqm=0 / deadzone=21,11 / fast_pskip=1 / chroma_qp_offset=-2 / threads=3 / lookahead_threads=1 / sliced_threads=0 / nr=0 / decimate=1 / interlaced=0 / bluray_compat=0 / constrained_intra=0 / bframes=3 / b_pyramid=2 / b_adapt=1 / b_bias=0 / direct=1 / weightb=1 / open_gop=0 / weightp=2 / keyint=240 / keyint_min=23 / scenecut=40 / intra_refresh=0 / rc_lookahead=40 / rc=crf / mbtree=1 / crf=23.0 / qcomp=0.60 / qpmin=0 / qpmax=69 / qpstep=4 / vbv_maxrate=62500 / vbv_bufsize=78125 / crf_max=0.0 / nal_hrd=none / ip_ratio=1.40 / aq=1:1.00
Language : Portuguese
Default : Yes
Forced : No

Audio
ID : 2
Format : AC-3
Format/Info : Audio Coding 3
Mode extension : CM (complete main)
Format settings, Endianness : Big
Muxing mode : Header stripping
Codec ID : A_AC3
Duration : 1h 29mn
Bit rate mode : Constant
Bit rate : 384 Kbps
Channel(s) : 6 channels
Channel positions : Front: L C R, Side: L R, LFE
Sampling rate : 48.0 KHz
Bit depth : 16 bits
Compression mode : Lossy
Stream size : 245 MiB (33%)
Title : by fantasma
Language : Portuguese
Default : No
Forced : No

Text #1
ID : 3
Format : VobSub
Muxing mode : zlib
Codec ID : S_VOBSUB
Codec ID/Info : The same subtitle format used on DVDs
Title : English - (Caption/Normal Size Char)
Language : English
Default : No
Forced : No

Text #2
ID : 4
Format : VobSub
Muxing mode : zlib
Codec ID : S_VOBSUB
Codec ID/Info : The same subtitle format used on DVDs
Title : Portuguese - (Caption/Normal Size Char)
Language : Portuguese
Default : No
Forced : No

Text #3
ID : 5
Format : VobSub
Muxing mode : zlib
Codec ID : S_VOBSUB
Codec ID/Info : The same subtitle format used on DVDs
Title : English - (Director Comments/Normal Size Char)
Language : English
Default : No
Forced : No

Text #4
ID : 6
Format : VobSub
Muxing mode : zlib
Codec ID : S_VOBSUB
Codec ID/Info : The same subtitle format used on DVDs
Title : Portuguese - (Director Comments/Normal Size Char)
Language : Portuguese
Default : No
Forced : No

Text #5
ID : 7
Format : VobSub
Muxing mode : zlib
Codec ID : S_VOBSUB
Codec ID/Info : The same subtitle format used on DVDs
Language : English
Default : No
Forced : No

Text #6
ID : 8
Format : VobSub
Muxing mode : zlib
Codec ID : S_VOBSUB
Codec ID/Info : The same subtitle format used on DVDs
Language : Portuguese
Default : No
Forced : No

Text #7
ID : 9
Format : UTF-8
Codec ID : S_TEXT/UTF8
Codec ID/Info : UTF-8 Plain Text
Title : Credito
Language : Portuguese
Default : Yes
Forced : No

Menu
00:00:00.000 : en:Chapter 01
00:04:14.834 : en:Chapter 02
00:06:45.201 : en:Chapter 03
00:09:24.201 : en:Chapter 04
00:15:50.002 : en:Chapter 05
00:17:32.703 : en:Chapter 06
00:20:24.703 : en:Chapter 07
00:23:55.003 : en:Chapter 08
00:28:00.871 : en:Chapter 09
00:30:56.171 : en:Chapter 10
00:33:49.872 : en:Chapter 11
00:35:16.872 : en:Chapter 12
00:38:12.172 : en:Chapter 13
00:42:56.339 : en:Chapter 14
00:45:32.207 : en:Chapter 15
00:49:19.009 : en:Chapter 16
00:52:13.176 : en:Chapter 17
00:55:13.343 : en:Chapter 18
00:57:55.343 : en:Chapter 19
01:03:23.843 : en:Chapter 20
01:06:29.010 : en:Chapter 21
01:15:12.377 : en:Chapter 22
01:19:42.211 : en:Chapter 23
01:29:16.344 : en:Chapter 24